<?xml version="1.0" encoding="UTF-8" standalone="no"?>
<!-- Created with Inkscape (http://www.inkscape.org/) -->

<svg
   version="1.1"
   id="svg740"
   width="98.789459"
   height="40.295231"
   viewBox="0 0 98.78946 40.295231"
   sodipodi:docname="logo.svg"
   xml:space="preserve"
   inkscape:version="1.2.1 (9c6d41e410, 2022-07-14)"
   xmlns:inkscape="http://www.inkscape.org/namespaces/inkscape"
   xmlns:sodipodi="http://sodipodi.sourceforge.net/DTD/sodipodi-0.dtd"
   xmlns="http://www.w3.org/2000/svg"
   xmlns:svg="http://www.w3.org/2000/svg"><defs
     id="defs744"><clipPath
       clipPathUnits="userSpaceOnUse"
       id="clipPath778"><path
         style="fill:#000000;stroke-width:0.370835"
         d="m 848.65637,1396.6136 c -19.20397,-2.2001 -36.94263,-11.7607 -50.01324,-26.9555 -10.83884,-12.6003 -17.87046,-29.193 -19.52469,-46.0727 -0.59215,-6.0423 -0.24505,-16.9394 0.72298,-22.6979 2.29148,-13.6312 7.71359,-26.28 15.92698,-37.1549 2.77497,-3.6742 9.64394,-10.8652 12.66131,-13.2549 3.74728,-2.9677 5.46476,-1.969 5.90739,3.4351 0.62914,7.6813 2.44208,15.2922 4.58492,19.2479 l 1.08415,2.0014 3.63594,-1.97 c 19.03173,-10.3118 32.22517,-28.5625 36.57331,-50.5926 0.72526,-3.6745 0.98503,-6.3249 1.13855,-11.6162 0.217,-7.4795 0.43359,-8.3305 2.22589,-8.7457 1.77244,-0.4107 12.5381,5.5005 20.25689,11.1225 15.7407,11.4648 29.43869,27.9678 37.83405,45.5814 11.15067,23.3943 15.21558,52.0313 10.54263,74.272 -6.181,29.4183 -28.4795,53.5994 -56.43469,61.1994 -7.86588,2.1384 -19.45677,3.0789 -27.12237,2.2007 z"
         id="path780" /></clipPath><filter
       style="color-interpolation-filters:sRGB"
       inkscape:label="Invert"
       id="filter169"
       x="0"
       y="0"
       width="1"
       height="1"><feColorMatrix
         values="1 0 0 0 0 0 1 0 0 0 0 0 1 0 0 -0.21 -0.72 -0.07 2 0 "
         result="fbSourceGraphic"
         id="feColorMatrix167" /><feColorMatrix
         result="fbSourceGraphicAlpha"
         in="fbSourceGraphic"
         values="0 0 0 -1 0 0 0 0 -1 0 0 0 0 -1 0 0 0 0 1 0"
         id="feColorMatrix171" /><feColorMatrix
         id="feColorMatrix173"
         values="1 0 0 0 0 0 1 0 0 0 0 0 1 0 0 -0.21 -0.72 -0.07 2 0 "
         result="color2"
         in="fbSourceGraphic" /></filter><clipPath
       clipPathUnits="userSpaceOnUse"
       id="clipPath5534"><path
         style="opacity:1;fill:#7c7469;fill-opacity:1;stroke:#000000;stroke-opacity:0"
         d="m 651.689,1474.3141 13.78476,12.2781 -10.72695,19.8197 1.43044,12.548 15.55251,-0.6208 13.66573,-0.467 6.7866,-5.4795 -8.56747,-11.7025 -2.20715,-13.2909 5.11498,-10.597 1.68667,-8.7706 -27.5507,-4.963 -12.57686,2.9997"
         id="path5536" /></clipPath><clipPath
       clipPathUnits="userSpaceOnUse"
       id="clipPath5589"><path
         style="opacity:1;fill:#7c7469;fill-opacity:1;stroke:#000000;stroke-opacity:0"
         d="m 671.67683,1483.9711 3.18918,3.4932 4.4943,3.6372 -4.44703,4.0955 -3.28594,3.4956 -11.20323,16.387 -5.53773,-6.8337 6.12593,-3.8928 3.91971,-4.5875 3.12803,-3.1766 0.34889,-1.3923 2.20288,-2.5616 0.58313,-0.4325 0.35432,-0.2376 0.29181,-0.2366 -3.4213,-4.2101 -13.13357,-8.8083 -3.16387,-11.0656 9.15509,-2.3756"
         id="path5591"
         sodipodi:nodetypes="cccccc" /></clipPath><clipPath
       clipPathUnits="userSpaceOnUse"
       id="clipPath6352"><path
         style="mix-blend-mode:normal;fill:#7c7469;fill-opacity:1;stroke:#000000;stroke-width:0.069993;stroke-opacity:0"
         d="m 711.80792,1526.6217 c -3.72265,-0.4043 -7.16125,-2.1613 -9.69497,-4.9537 -2.10109,-2.3156 -3.46415,-5.365 -3.78482,-8.4671 -0.11479,-1.1104 -0.0475,-3.113 0.14015,-4.1713 0.4442,-2.505 1.49526,-4.8296 3.08741,-6.8281 0.53792,-0.6753 1.86946,-1.9968 2.45437,-2.4359 0.72641,-0.5454 1.05934,-0.3619 1.14514,0.6312 0.12196,1.4117 0.47339,2.8104 0.88878,3.5373 l 0.21016,0.3678 0.70482,-0.362 c 3.68926,-1.8951 6.24679,-5.2491 7.08966,-9.2977 0.14059,-0.6753 0.19095,-1.1623 0.22071,-2.1348 0.0421,-1.3745 0.084,-1.5309 0.43148,-1.6072 0.34359,-0.075 2.43049,1.0109 3.92676,2.044 3.05131,2.107 5.70664,5.1398 7.33406,8.3768 2.16154,4.2993 2.94951,9.5621 2.04367,13.6494 -1.19818,5.4063 -5.5207,9.8502 -10.93976,11.2469 -1.52478,0.393 -3.77165,0.5658 -5.25762,0.4044 z"
         id="path6354" /></clipPath><clipPath
       clipPathUnits="userSpaceOnUse"
       id="clipPath6425"><rect
         style="opacity:1;fill:#808000;fill-opacity:1;stroke:#000000;stroke-opacity:0"
         id="rect6427"
         width="54.400745"
         height="30.640091"
         x="687.85413"
         y="1473.6671"
         clip-path="url(#clipPath6352)"
         transform="translate(-11.33272,-20.2124)" /></clipPath></defs><sodipodi:namedview
     id="namedview742"
     pagecolor="#ffffff"
     bordercolor="#000000"
     borderopacity="0.25"
     inkscape:showpageshadow="2"
     inkscape:pageopacity="0.0"
     inkscape:pagecheckerboard="0"
     inkscape:deskcolor="#d1d1d1"
     showgrid="false"
     inkscape:zoom="5.4501615"
     inkscape:cx="59.723001"
     inkscape:cy="29.632149"
     inkscape:window-width="2560"
     inkscape:window-height="1372"
     inkscape:window-x="1920"
     inkscape:window-y="32"
     inkscape:window-maximized="1"
     inkscape:current-layer="g746" /><g
     inkscape:groupmode="layer"
     inkscape:label="Image"
     id="g746"
     transform="translate(-665.58849,-1259.5225)"><g
       id="g9600"
       transform="translate(0.18669205,0.21265163)"><rect
         style="fill:#b31b1b;fill-opacity:1;stroke-width:0.712825"
         id="rect244"
         width="45.039204"
         height="40.283875"
         x="665.40179"
         y="1259.3212"
         ry="7.4309559" /><path
         style="mix-blend-mode:normal;fill:#3b393d;fill-opacity:1;stroke:#000000;stroke-width:0.0894942;stroke-opacity:0"
         d="m 688.87975,1291.1975 c -5.18633,-1.305 -2.03433,2.832 -5.11541,-0.8973 -2.555,-3.0924 -6.44312,-1.5667 -6.34294,-5.1409 0.0358,-1.2791 -9.09006,-6.4407 -8.1916,-7.2921 0.32154,-0.3047 0.87242,-0.8342 1.45024,-1.3848 0.68791,-0.6554 1.41399,-1.3406 1.83674,-1.7116 0.36842,-0.3182 0.948,-0.8057 1.57007,-1.1573 0.86416,-0.4883 1.80526,-0.8216 2.33117,-1.0321 1.12333,-0.4499 1.56086,-0.1669 1.50499,0.9733 -0.0795,1.6212 0.16759,3.2799 0.62471,4.1951 l 0.23128,0.463 1.06015,-0.2479 c 5.54911,-1.2976 9.75978,-4.5001 11.67228,-8.8773 0.31898,-0.7299 0.47694,-1.2682 0.69238,-2.3589 0.30449,-1.5416 0.39156,-1.7086 0.89605,-1.7154 0.49878,-0.012 3.25291,1.6948 5.18225,3.2021 3.93441,3.0735 5.48607,4.5798 6.73289,7.3294 -1.70766,5.0609 -4.8058,4.6258 -8.06591,8.2065 -3.55521,3.9048 -3.50738,3.6731 -5.71552,5.463 -2.22387,0.096 -0.28363,2.5043 -2.35382,1.9832 z"
         id="path5204"
         sodipodi:nodetypes="ccssscscsscssscccscc" /><path
         d="m 702.3266,1280.5539 10e-6,2e-4 -0.0377,0.045 c -10e-6,-10e-5 2.1e-4,0 2.1e-4,0 -0.29693,0.3407 -0.60601,0.6939 -0.86202,0.9866 l 2.1e-4,2e-4 -0.0415,0.048 c -3.1e-4,-2e-4 -5.9e-4,0 -5.9e-4,0 l -0.0557,0.064 -1.1e-4,-10e-5 c -3.46537,3.9447 -8.104,9.0209 -10.65685,10.9592 -0.95801,0.7275 -1.95025,1.19 -2.94855,1.3747 -0.80076,0.1481 -1.60705,0.1189 -2.3959,-0.087 -1.34391,-0.3503 -2.15997,-1.081 -2.19501,-1.1129 l -9.84589,-9.216 v 0 l -0.0601,-0.057 -0.0538,-0.051 h 10e-5 l -1.04376,-0.977 v 0 c -1.02395,-0.9602 -4.03933,-3.1069 -2.84249,-4.6498 0.61311,-0.6658 2.07199,-8e-4 2.13454,0.019 1.26043,0.6786 2.31691,1.4825 3.24218,2.1652 v 0 l 0.0489,0.034 c -6e-5,8e-4 -3.6e-4,8e-4 2.1e-4,0 0.38309,0.2834 0.78087,0.5774 1.11036,0.8208 v 0 l 0.0531,0.038 c -6e-5,7e-4 10e-5,0 10e-5,0 l 0.0678,0.052 v 0 c 3.25698,2.4115 7.36352,5.4812 8.6099,6.5416 0.88002,0.749 1.85929,0.9746 2.90931,0.6704 0.78927,-0.2287 1.32538,-0.6871 1.32902,-0.6902 l 9.94506,-9.1837 v 0 l 0.99815,-0.9218 v 0 c 1.21635,-1.0575 2.95628,-3.5903 4.77809,-2.4467 0.0854,0.061 0.16207,0.1327 0.2278,0.2142 0.69994,0.8691 0.19563,2.0589 0.16236,2.13 l -0.12904,0.2456 -0.26514,0.3828"
         style="fill:#3b393d;fill-opacity:1;fill-rule:nonzero;stroke:none;stroke-width:0.00307796"
         id="path6231"
         sodipodi:nodetypes="ccccccccccccccccccccccccccccccccccccccccccccc" /></g><g
       id="g9606"><rect
         style="fill:#b31b1b;fill-opacity:1;stroke-width:0.712825"
         id="rect244-7"
         width="45.039204"
         height="40.283875"
         x="719.33875"
         y="1259.5225"
         ry="7.4309559" /><path
         style="mix-blend-mode:normal;fill:#7c7469;fill-opacity:1;stroke:#000000;stroke-width:0.0894942;stroke-opacity:0"
         d="m 742.81672,1291.3987 c -5.18633,-1.305 -2.03433,2.832 -5.11541,-0.8973 -2.555,-3.0924 -6.44312,-1.5667 -6.34294,-5.1409 0.0358,-1.2791 -9.09006,-6.4407 -8.1916,-7.2921 0.32154,-0.3047 0.87242,-0.8342 1.45024,-1.3848 0.68791,-0.6554 1.41399,-1.3406 1.83674,-1.7116 0.36842,-0.3182 0.948,-0.8057 1.57007,-1.1573 0.86416,-0.4883 1.80526,-0.8216 2.33117,-1.0321 1.12333,-0.4499 1.56086,-0.1669 1.50499,0.9733 -0.0795,1.6212 0.16759,3.2799 0.62471,4.1951 l 0.23128,0.463 1.06015,-0.2479 c 5.54911,-1.2976 9.75978,-4.5001 11.67228,-8.8773 0.31898,-0.7299 0.47694,-1.2682 0.69238,-2.3589 0.30449,-1.5416 0.39156,-1.7086 0.89605,-1.7154 0.49878,-0.012 3.25291,1.6948 5.18225,3.2021 3.93441,3.0735 5.48607,4.5798 6.73289,7.3294 -1.70766,5.0609 -4.8058,4.6258 -8.06591,8.2065 -3.55521,3.9048 -3.50738,3.6731 -5.71552,5.463 -2.22387,0.096 -0.28363,2.5043 -2.35382,1.9832 z"
         id="path5204-5"
         sodipodi:nodetypes="ccssscscsscssscccscc" /><path
         d="m 756.26357,1280.7551 1e-5,2e-4 -0.0377,0.045 c -10e-6,-1e-4 2.1e-4,0 2.1e-4,0 -0.29693,0.3407 -0.60601,0.6939 -0.86202,0.9866 l 2.1e-4,2e-4 -0.0415,0.048 c -3.1e-4,-2e-4 -5.9e-4,0 -5.9e-4,0 l -0.0557,0.064 -1.1e-4,-1e-4 c -3.46537,3.9447 -8.104,9.0209 -10.65685,10.9592 -0.95801,0.7275 -1.95025,1.19 -2.94855,1.3747 -0.80076,0.1481 -1.60705,0.1189 -2.3959,-0.087 -1.34391,-0.3503 -2.15997,-1.081 -2.19501,-1.1129 l -9.84589,-9.216 v 0 l -0.0601,-0.057 -0.0538,-0.051 h 10e-5 l -1.04376,-0.977 v 0 c -1.02395,-0.9602 -4.03933,-3.1069 -2.84249,-4.6498 0.61311,-0.6658 2.07199,-8e-4 2.13454,0.019 1.26043,0.6786 2.31691,1.4825 3.24218,2.1652 v 0 l 0.0489,0.034 c -6e-5,8e-4 -3.6e-4,8e-4 2.1e-4,0 0.38309,0.2834 0.78087,0.5774 1.11036,0.8208 v 0 l 0.0531,0.038 c -6e-5,7e-4 1e-4,0 1e-4,0 l 0.0678,0.052 v 0 c 3.25698,2.4115 7.36352,5.4812 8.6099,6.5416 0.88002,0.749 1.85929,0.9746 2.90931,0.6704 0.78927,-0.2287 1.32538,-0.6871 1.32902,-0.6902 l 9.94506,-9.1837 v 0 l 0.99815,-0.9218 v 0 c 1.21635,-1.0575 2.95628,-3.5903 4.77809,-2.4467 0.0854,0.061 0.16207,0.1327 0.2278,0.2142 0.69994,0.8691 0.19563,2.0589 0.16236,2.13 l -0.12904,0.2456 -0.26514,0.3828"
         style="fill:#3b393d;fill-opacity:1;fill-rule:nonzero;stroke:none;stroke-width:0.00307796"
         id="path6231-3"
         sodipodi:nodetypes="ccccccccccccccccccccccccccccccccccccccccccccc" /><path
         style="fill:#7c7469;fill-opacity:1;stroke:#000000;stroke-opacity:0"
         d="M 723.60075,1482.4292 710.20457,1467.474"
         id="path6419"
         clip-path="url(#clipPath6425)"
         transform="rotate(-0.61997041,-18344.019,-782.85054)"
         sodipodi:nodetypes="cc" /></g></g></svg>
